<svg width="100" height="100" viewBox="0 0 100 100" fill="none" xmlns="http://www.w3.org/2000/svg">
<g filter="url(#filter0_d_96_9)">
<rect x="20" y="20" width="60" height="60" rx="30" fill="url(#paint0_linear_96_9)"/>
</g>
<path d="M47.1852 40.0074C46.8454 39.9835 46.4973 40.0171 46.1559 40.1148L44.934 40.4654C43.632 40.8383 42.6146 41.8389 42.2704 43.1019C41.5062 45.9105 42.3805 49.2349 44.6557 52.977C46.9278 56.7139 49.5168 59.0889 52.4407 59.864C53.7575 60.2131 55.1776 59.8797 56.175 58.9823L57.1045 58.1474C58.1446 57.212 58.2997 55.6541 57.4594 54.5471L56.1165 52.7807C55.3967 51.8337 54.1278 51.4305 52.9609 51.77L50.8599 52.3794C50.7718 52.4043 50.5607 52.288 50.377 52.1343L50.376 52.1333C50.0489 51.8578 49.5957 51.3009 49.1108 50.5045V50.5035C48.5909 49.6483 48.3691 49.0889 48.2801 48.7586C48.191 48.4281 48.2126 48.3879 48.2256 48.2762C48.2324 48.2205 48.2597 48.1688 48.3063 48.1278L48.3073 48.1268L49.874 46.7392C50.7715 45.9445 51.0425 44.6744 50.5363 43.6057L49.5917 41.6098V41.6088C49.1469 40.6699 48.2043 40.0792 47.1852 40.0074ZM47.0733 41.5034C47.5473 41.5377 47.9837 41.813 48.1833 42.2348L49.1289 44.2307C49.3578 44.7138 49.243 45.2667 48.8295 45.6329L47.2628 47.0195C46.9417 47.3031 46.7363 47.6898 46.6872 48.1073V48.1083C46.6744 48.218 46.6442 48.6263 46.7819 49.1375C46.9197 49.6487 47.2042 50.3248 47.776 51.2652H47.777C48.3105 52.1416 48.8147 52.8075 49.3608 53.267H49.3618C49.5392 53.4157 50.2824 54.1056 51.2935 53.8197L51.2965 53.8187L53.4066 53.2064C53.9545 53.047 54.5403 53.2374 54.8694 53.6703L56.2123 55.4367C56.5925 55.9385 56.5261 56.6206 56.051 57.0479L55.1214 57.8838C54.527 58.4188 53.6442 58.6277 52.849 58.4169C50.4853 57.7902 48.1462 55.7617 45.9905 52.2163C43.8319 48.666 43.1567 45.7296 43.7676 43.4846C43.9695 42.7437 44.5882 42.1287 45.3735 41.9037L46.5944 41.5532C46.7535 41.5077 46.9153 41.4919 47.0733 41.5034Z" fill="white"/>
<defs>
<filter id="filter0_d_96_9" x="0" y="0" width="100" height="100" filterUnits="userSpaceOnUse" color-interpolation-filters="sRGB">
<feFlood flood-opacity="0" result="BackgroundImageFix"/>
<feColorMatrix in="SourceAlpha" type="matrix" values="0 0 0 0 0 0 0 0 0 0 0 0 0 0 0 0 0 0 127 0" result="hardAlpha"/>
<feOffset/>
<feGaussianBlur stdDeviation="10"/>
<feColorMatrix type="matrix" values="0 0 0 0 0 0 0 0 0 0 0 0 0 0 0 0 0 0 0.15 0"/>
<feBlend mode="normal" in2="BackgroundImageFix" result="effect1_dropShadow_96_9"/>
<feBlend mode="normal" in="SourceGraphic" in2="effect1_dropShadow_96_9" result="shape"/>
</filter>
<linearGradient id="paint0_linear_96_9" x1="51.9481" y1="20" x2="93.6798" y2="74.6753" gradientUnits="userSpaceOnUse">
<stop stop-color="#F57350"/>
<stop offset="1" stop-color="#F4512D"/>
</linearGradient>
</defs>
</svg>
